{
  "accessors": [
    {
      "bufferView": 2,
      "componentType": 5126,
      "count": 18978,
      "max": [1.138443946838379, 1.1184840202331543, 3.1430649757385254],
      "min": [-1.1077510118484497, -1.724166989326477, 0.9319339990615845],
      "type": "VEC3"
    },
    {
      "bufferView": 2,
      "byteOffset": 227736,
      "componentType": 5126,
      "count": 18978,
      "max": [1.0, 1.0, 1.0],
      "min": [-1.0, -1.0, -1.0],
      "type": "VEC3"
    },
    {
      "bufferView": 1,
      "componentType": 5126,
      "count": 18978,
      "max": [1.0, 1.0],
      "min": [0.0, 0.0],
      "type": "VEC2"
    },
    {
      "bufferView": 0,
      "componentType": 5125,
      "count": 62466,
      "type": "SCALAR"
    },
    {
      "bufferView": 2,
      "byteOffset": 455472,
      "componentType": 5126,
      "count": 2650,
      "max": [0.9110550284385681, 1.3360689878463745, 2.9467580318450928],
      "min": [-0.9110559821128845, 1.1184829473495483, 1.128242015838623],
      "type": "VEC3"
    },
    {
      "bufferView": 2,
      "byteOffset": 487272,
      "componentType": 5126,
      "count": 2650,
      "max": [0.8832354545593262, 0.9995932579040527, 0.8814941048622131],
      "min": [-0.8832354545593262, 0.4689270555973053, -0.8814923167228699],
      "type": "VEC3"
    },
    {
      "bufferView": 1,
      "byteOffset": 151824,
      "componentType": 5126,
      "count": 2650,
      "max": [1.0, 1.0],
      "min": [0.0, 0.0],
      "type": "VEC2"
    },
    {
      "bufferView": 0,
      "byteOffset": 249864,
      "componentType": 5125,
      "count": 5700,
      "type": "SCALAR"
    },
    {
      "bufferView": 2,
      "byteOffset": 519072,
      "componentType": 5126,
      "count": 1246,
      "max": [0.7731999754905701, 1.3626220226287842, 2.8091750144958496],
      "min": [-0.7732009887695313, -1.7655140161514282, 1.2658250331878662],
      "type": "VEC3"
    },
    {
      "bufferView": 2,
      "byteOffset": 534024,
      "componentType": 5126,
      "count": 1246,
      "max": [0.8564548492431641, 1.0, 0.8578593134880066],
      "min": [-0.8564550280570984, -1.0, -0.857860803604126],
      "type": "VEC3"
    },
    {
      "bufferView": 1,
      "byteOffset": 173024,
      "componentType": 5126,
      "count": 1246,
      "max": [1.0, 1.0],
      "min": [0.0, 0.0],
      "type": "VEC2"
    },
    {
      "bufferView": 0,
      "byteOffset": 272664,
      "componentType": 5125,
      "count": 2700,
      "type": "SCALAR"
    }
  ],
  "asset": {
    "extras": {
      "author": "Karan Sahu (https://sketchfab.com/cgkaran)",
      "license": "CC-BY-4.0 (http://creativecommons.org/licenses/by/4.0/)",
      "source": "https://sketchfab.com/3d-models/dslr-camera-lens-60bfdc6a3c884b91ae4f8ebd3f750a88",
      "title": "DSLR Camera Lens"
    },
    "generator": "Sketchfab-12.66.0",
    "version": "2.0"
  },
  "bufferViews": [
    {
      "buffer": 0,
      "byteLength": 283464,
      "name": "floatBufferViews",
      "target": 34963
    },
    {
      "buffer": 0,
      "byteLength": 182992,
      "byteOffset": 283464,
      "byteStride": 8,
      "name": "floatBufferViews",
      "target": 34962
    },
    {
      "buffer": 0,
      "byteLength": 548976,
      "byteOffset": 466456,
      "byteStride": 12,
      "name": "floatBufferViews",
      "target": 34962
    }
  ],
  "buffers": [
    {
      "byteLength": 1015432,
      "uri": "camera.bin"
    }
  ],
  "extensionsRequired": ["KHR_materials_pbrSpecularGlossiness"],
  "extensionsUsed": ["KHR_materials_pbrSpecularGlossiness"],
  "materials": [
    {
      "doubleSided": true,
      "extensions": {
        "KHR_materials_pbrSpecularGlossiness": {
          "diffuseFactor": [0.62, 0.62, 0.62, 1.0],
          "glossinessFactor": 1.0,
          "specularFactor": [1.0, 1.0, 1.0]
        }
      },
      "name": "blinn1SG"
    },
    {
      "doubleSided": true,
      "extensions": {
        "KHR_materials_pbrSpecularGlossiness": {
          "diffuseFactor": [0.5, 0.5, 0.5, 1.0],
          "glossinessFactor": 0.0,
          "specularFactor": [0.0, 0.0, 0.0]
        }
      },
      "name": "blinn2SG"
    }
  ],
  "meshes": [
    {
      "name": "Object_0",
      "primitives": [
        {
          "attributes": {
            "NORMAL": 1,
            "POSITION": 0,
            "TEXCOORD_0": 2
          },
          "indices": 3,
          "material": 0,
          "mode": 4
        }
      ]
    },
    {
      "name": "Object_1",
      "primitives": [
        {
          "attributes": {
            "NORMAL": 5,
            "POSITION": 4,
            "TEXCOORD_0": 6
          },
          "indices": 7,
          "material": 0,
          "mode": 4
        }
      ]
    },
    {
      "name": "Object_2",
      "primitives": [
        {
          "attributes": {
            "NORMAL": 9,
            "POSITION": 8,
            "TEXCOORD_0": 10
          },
          "indices": 11,
          "material": 1,
          "mode": 4
        }
      ]
    }
  ],
  "nodes": [
    {
      "children": [1],
      "matrix": [
        1.0, 0.0, 0.0, 0.0, 0.0, 2.220446049250313e-16, -1.0, 0.0, 0.0, 1.0, 2.220446049250313e-16,
        0.0, 0.0, 0.0, 0.0, 1.0
      ],
      "name": "Sketchfab_model"
    },
    {
      "children": [2, 3, 4],
      "name": "DSLR Camera Lens.obj.cleaner.materialmerger.gles"
    },
    {
      "mesh": 0,
      "name": "Object_2"
    },
    {
      "mesh": 1,
      "name": "Object_3"
    },
    {
      "mesh": 2,
      "name": "Object_4"
    }
  ],
  "scene": 0,
  "scenes": [
    {
      "name": "Sketchfab_Scene",
      "nodes": [0]
    }
  ]
}
