{
  "accessors": [
    {
      "bufferView": 2,
      "componentType": 5126,
      "count": 1360,
      "max": [
        0.0964958518743515,
        0.007500004023313522,
        0.12750248610973358
      ],
      "min": [
        -0.0964958518743515,
        -0.06749999523162842,
        0.05250244960188866
      ],
      "type": "VEC3"
    },
    {
      "bufferView": 2,
      "byteOffset": 16320,
      "componentType": 5126,
      "count": 1360,
      "max": [
        1.0,
        0.8534553647041321,
        0.853455662727356
      ],
      "min": [
        -1.0,
        -0.8534561395645142,
        -0.8534554839134216
      ],
      "type": "VEC3"
    },
    {
      "bufferView": 1,
      "componentType": 5126,
      "count": 1360,
      "max": [
        0.9558292627334595,
        0.8620477914810181
      ],
      "min": [
        0.26249998807907104,
        0.013713479042053223
      ],
      "type": "VEC2"
    },
    {
      "bufferView": 0,
      "componentType": 5125,
      "count": 2112,
      "type": "SCALAR"
    },
    {
      "bufferView": 2,
      "byteOffset": 32640,
      "componentType": 5126,
      "count": 1417,
      "max": [
        0.10149585455656052,
        -0.003750000149011612,
        0.11625245958566666
      ],
      "min": [
        -0.10149585455656052,
        -0.056249991059303284,
        0.06375245749950409
      ],
      "type": "VEC3"
    },
    {
      "bufferView": 2,
      "byteOffset": 49644,
      "componentType": 5126,
      "count": 1417,
      "max": [
        1.0,
        0.9404717087745667,
        0.9404729008674622
      ],
      "min": [
        -1.0,
        -0.9404721856117249,
        -0.9404716491699219
      ],
      "type": "VEC3"
    },
    {
      "bufferView": 1,
      "byteOffset": 10880,
      "componentType": 5126,
      "count": 1417,
      "max": [
        0.862500011920929,
        0.9041668176651001
      ],
      "min": [
        0.26249998807907104,
        0.26249995827674866
      ],
      "type": "VEC2"
    },
    {
      "bufferView": 0,
      "byteOffset": 8448,
      "componentType": 5125,
      "count": 2280,
      "type": "SCALAR"
    },
    {
      "bufferView": 2,
      "byteOffset": 66648,
      "componentType": 5126,
      "count": 2786,
      "max": [
        0.09624303132295609,
        0.08723556250333786,
        0.12869180738925934
      ],
      "min": [
        -0.09624303132295609,
        -0.034068889915943146,
        0.08134964108467102
      ],
      "type": "VEC3"
    },
    {
      "bufferView": 2,
      "byteOffset": 100080,
      "componentType": 5126,
      "count": 2786,
      "max": [
        0.9998072981834412,
        1.0,
        1.0
      ],
      "min": [
        -0.9998072385787964,
        -1.0,
        -1.0
      ],
      "type": "VEC3"
    },
    {
      "bufferView": 1,
      "byteOffset": 22216,
      "componentType": 5126,
      "count": 2786,
      "max": [
        0.9662562012672424,
        0.972454845905304
      ],
      "min": [
        0.2847234010696411,
        0.014679133892059326
      ],
      "type": "VEC2"
    },
    {
      "bufferView": 0,
      "byteOffset": 17568,
      "componentType": 5125,
      "count": 4254,
      "type": "SCALAR"
    },
    {
      "bufferView": 2,
      "byteOffset": 133512,
      "componentType": 5126,
      "count": 504,
      "max": [
        0.0964958518743515,
        -0.04291554540395737,
        0.07708689570426941
      ],
      "min": [
        0.07129738479852676,
        -0.09888215363025665,
        0.02112027257680893
      ],
      "type": "VEC3"
    },
    {
      "bufferView": 2,
      "byteOffset": 139560,
      "componentType": 5126,
      "count": 504,
      "max": [
        1.0,
        0.8002510666847229,
        0.8002519011497498
      ],
      "min": [
        -1.0,
        -0.9845620393753052,
        -0.9845618009567261
      ],
      "type": "VEC3"
    },
    {
      "bufferView": 1,
      "byteOffset": 44504,
      "componentType": 5126,
      "count": 504,
      "max": [
        0.9738832116127014,
        0.9662631154060364
      ],
      "min": [
        0.39043915271759033,
        0.03227967023849487
      ],
      "type": "VEC2"
    },
    {
      "bufferView": 0,
      "byteOffset": 34584,
      "componentType": 5125,
      "count": 798,
      "type": "SCALAR"
    }
  ],
  "asset": {
    "extras": {
      "author": "MRowa (https://sketchfab.com/MRowa)",
      "license": "CC-BY-SA-4.0 (http://creativecommons.org/licenses/by-sa/4.0/)",
      "source": "https://sketchfab.com/3d-models/headphone-e196fbdad6c04f4a8cfd10a4fafd1ca2",
      "title": "Headphone"
    },
    "generator": "Sketchfab-12.66.0",
    "version": "2.0"
  },
  "bufferViews": [
    {
      "buffer": 0,
      "byteLength": 37776,
      "name": "floatBufferViews",
      "target": 34963
    },
    {
      "buffer": 0,
      "byteLength": 48536,
      "byteOffset": 37776,
      "byteStride": 8,
      "name": "floatBufferViews",
      "target": 34962
    },
    {
      "buffer": 0,
      "byteLength": 145608,
      "byteOffset": 86312,
      "byteStride": 12,
      "name": "floatBufferViews",
      "target": 34962
    }
  ],
  "buffers": [
    {
      "byteLength": 231920,
      "uri": "scene.bin"
    }
  ],
  "images": [
    {
      "uri": "textures/Characters_baseColor.png"
    },
    {
      "uri": "textures/Characters_metallicRoughness.png"
    },
    {
      "uri": "textures/Characters_emissive.png"
    }
  ],
  "materials": [
    {
      "doubleSided": true,
      "emissiveFactor": [
        1.0,
        1.0,
        1.0
      ],
      "emissiveTexture": {
        "index": 2
      },
      "name": "Characters",
      "pbrMetallicRoughness": {
        "baseColorTexture": {
          "index": 0
        },
        "metallicRoughnessTexture": {
          "index": 1
        },
        "roughnessFactor": 0.5
      }
    }
  ],
  "meshes": [
    {
      "name": "Headphone_Characters_0",
      "primitives": [
        {
          "attributes": {
            "NORMAL": 1,
            "POSITION": 0,
            "TEXCOORD_0": 2
          },
          "indices": 3,
          "material": 0,
          "mode": 4
        }
      ]
    },
    {
      "name": "Headphone_Dynamic_Characters_0",
      "primitives": [
        {
          "attributes": {
            "NORMAL": 5,
            "POSITION": 4,
            "TEXCOORD_0": 6
          },
          "indices": 7,
          "material": 0,
          "mode": 4
        }
      ]
    },
    {
      "name": "Headphone_Header_Characters_0",
      "primitives": [
        {
          "attributes": {
            "NORMAL": 9,
            "POSITION": 8,
            "TEXCOORD_0": 10
          },
          "indices": 11,
          "material": 0,
          "mode": 4
        }
      ]
    },
    {
      "name": "Headphone_Micro_Characters_0",
      "primitives": [
        {
          "attributes": {
            "NORMAL": 13,
            "POSITION": 12,
            "TEXCOORD_0": 14
          },
          "indices": 15,
          "material": 0,
          "mode": 4
        }
      ]
    }
  ],
  "nodes": [
    {
      "children": [
        1
      ],
      "matrix": [
        1.0,
        0.0,
        0.0,
        0.0,
        0.0,
        2.220446049250313e-16,
        -1.0,
        0.0,
        0.0,
        1.0,
        2.220446049250313e-16,
        0.0,
        0.0,
        0.0,
        0.0,
        1.0
      ],
      "name": "Sketchfab_model"
    },
    {
      "children": [
        2
      ],
      "matrix": [
        1.0,
        0.0,
        0.0,
        0.0,
        0.0,
        0.0,
        1.0,
        0.0,
        0.0,
        -1.0,
        0.0,
        0.0,
        0.0,
        0.0,
        0.0,
        1.0
      ],
      "name": "c52b158f84e340d5b7c0afbcfc5b6ea3.fbx"
    },
    {
      "children": [
        3
      ],
      "name": "RootNode"
    },
    {
      "children": [
        4,
        5,
        7,
        9
      ],
      "matrix": [
        100.0,
        0.0,
        0.0,
        0.0,
        -0.0,
        -1.629206793918314e-05,
        -99.99999999999868,
        0.0,
        0.0,
        99.99999999999868,
        -1.629206793918314e-05,
        0.0,
        -0.00036368027213029563,
        159.12449645996094,
        -0.3063476085662842,
        1.0
      ],
      "name": "Headphone"
    },
    {
      "mesh": 0,
      "name": "Headphone_Characters_0"
    },
    {
      "children": [
        6
      ],
      "matrix": [
        1.0,
        0.0,
        0.0,
        0.0,
        0.0,
        1.0,
        -2.646977960169688e-23,
        0.0,
        0.0,
        2.646977960169688e-23,
        1.0,
        0.0,
        0.0,
        0.0,
        0.0,
        1.0
      ],
      "name": "Headphone_Dynamic"
    },
    {
      "mesh": 1,
      "name": "Headphone_Dynamic_Characters_0"
    },
    {
      "children": [
        8
      ],
      "matrix": [
        1.0,
        0.0,
        0.0,
        0.0,
        0.0,
        1.0,
        -2.646977960169688e-23,
        0.0,
        0.0,
        2.646977960169688e-23,
        1.0,
        0.0,
        0.0,
        0.0,
        0.0,
        1.0
      ],
      "name": "Headphone_Header"
    },
    {
      "mesh": 2,
      "name": "Headphone_Header_Characters_0"
    },
    {
      "children": [
        10
      ],
      "matrix": [
        1.0,
        0.0,
        0.0,
        0.0,
        0.0,
        1.0,
        -2.646977960169688e-23,
        0.0,
        0.0,
        2.646977960169688e-23,
        1.0,
        0.0,
        0.0,
        0.0,
        0.0,
        1.0
      ],
      "name": "Headphone_Micro"
    },
    {
      "mesh": 3,
      "name": "Headphone_Micro_Characters_0"
    }
  ],
  "samplers": [
    {
      "magFilter": 9728,
      "minFilter": 9728,
      "wrapS": 10497,
      "wrapT": 10497
    }
  ],
  "scene": 0,
  "scenes": [
    {
      "name": "Sketchfab_Scene",
      "nodes": [
        0
      ]
    }
  ],
  "textures": [
    {
      "sampler": 0,
      "source": 0
    },
    {
      "sampler": 0,
      "source": 1
    },
    {
      "sampler": 0,
      "source": 2
    }
  ]
}
